<svg xmlns="http://www.w3.org/2000/svg" width="920" height="520" viewBox="0 0 920 520">
<rect width="100%" height="100%" fill="#ffffff"/>
<text x="460.0" y="34" font-family="Arial, Helvetica, sans-serif" font-size="22" font-weight="700" text-anchor="middle" fill="#17202a">Embedding Ablation at K=10</text>
<line x1="80" y1="420.0" x2="880" y2="420.0" stroke="#d7dde5" stroke-dasharray="4 4"/>
<text x="68" y="424.0" font-family="Arial, Helvetica, sans-serif" font-size="12" font-weight="400" text-anchor="end" fill="#17202a">0.0</text>
<line x1="80" y1="350.0" x2="880" y2="350.0" stroke="#d7dde5" stroke-dasharray="4 4"/>
<text x="68" y="354.0" font-family="Arial, Helvetica, sans-serif" font-size="12" font-weight="400" text-anchor="end" fill="#17202a">0.1</text>
<line x1="80" y1="280.0" x2="880" y2="280.0" stroke="#d7dde5" stroke-dasharray="4 4"/>
<text x="68" y="284.0" font-family="Arial, Helvetica, sans-serif" font-size="12" font-weight="400" text-anchor="end" fill="#17202a">0.2</text>
<line x1="80" y1="210.0" x2="880" y2="210.0" stroke="#d7dde5" stroke-dasharray="4 4"/>
<text x="68" y="214.0" font-family="Arial, Helvetica, sans-serif" font-size="12" font-weight="400" text-anchor="end" fill="#17202a">0.3</text>
<line x1="80" y1="140.0" x2="880" y2="140.0" stroke="#d7dde5" stroke-dasharray="4 4"/>
<text x="68" y="144.0" font-family="Arial, Helvetica, sans-serif" font-size="12" font-weight="400" text-anchor="end" fill="#17202a">0.4</text>
<line x1="80" y1="70.0" x2="880" y2="70.0" stroke="#d7dde5" stroke-dasharray="4 4"/>
<text x="68" y="74.0" font-family="Arial, Helvetica, sans-serif" font-size="12" font-weight="400" text-anchor="end" fill="#17202a">0.5</text>
<line x1="80" y1="70" x2="80" y2="420" stroke="#17202a"/>
<line x1="80" y1="420" x2="880" y2="420" stroke="#17202a"/>
<rect x="143.0" y="218.5" width="26" height="201.5" fill="#64748b"/>
<rect x="177.0" y="207.9" width="26" height="212.1" fill="#2563eb"/>
<text x="160.0" y="444" font-family="Arial, Helvetica, sans-serif" font-size="12" font-weight="400" text-anchor="middle" fill="#17202a">HitRate@10</text>
<rect x="303.0" y="226.4" width="26" height="193.6" fill="#64748b"/>
<rect x="337.0" y="213.2" width="26" height="206.8" fill="#2563eb"/>
<text x="320.0" y="444" font-family="Arial, Helvetica, sans-serif" font-size="12" font-weight="400" text-anchor="middle" fill="#17202a">Recall@10</text>
<rect x="463.0" y="291.3" width="26" height="128.7" fill="#64748b"/>
<rect x="497.0" y="288.8" width="26" height="131.2" fill="#2563eb"/>
<text x="480.0" y="444" font-family="Arial, Helvetica, sans-serif" font-size="12" font-weight="400" text-anchor="middle" fill="#17202a">MRR@10</text>
<rect x="623.0" y="278.4" width="26" height="141.6" fill="#64748b"/>
<rect x="657.0" y="272.6" width="26" height="147.4" fill="#2563eb"/>
<text x="640.0" y="444" font-family="Arial, Helvetica, sans-serif" font-size="12" font-weight="400" text-anchor="middle" fill="#17202a">nDCG@10</text>
<rect x="783.0" y="144.3" width="26" height="275.7" fill="#64748b"/>
<rect x="817.0" y="117.7" width="26" height="302.3" fill="#2563eb"/>
<text x="800.0" y="444" font-family="Arial, Helvetica, sans-serif" font-size="12" font-weight="400" text-anchor="middle" fill="#17202a">PaperHit@10</text>
<rect x="100" y="75" width="14" height="14" fill="#64748b"/>
<text x="122" y="87" font-family="Arial, Helvetica, sans-serif" font-size="13" font-weight="400" text-anchor="start" fill="#17202a">MPNet + 1200/250</text>
<rect x="100" y="99" width="14" height="14" fill="#2563eb"/>
<text x="122" y="111" font-family="Arial, Helvetica, sans-serif" font-size="13" font-weight="400" text-anchor="start" fill="#17202a">BGE-base + 1200/250</text>
<text x="460.0" y="496" font-family="Arial, Helvetica, sans-serif" font-size="14" font-weight="600" text-anchor="middle" fill="#17202a">Metric</text>
<text x="22" y="260.0" font-family="Arial, Helvetica, sans-serif" font-size="14" font-weight="600" text-anchor="middle" fill="#17202a">Score</text>
</svg>